# xmcd
#
# Track frame offsets:
#	150
#	18655
#	36524
#	56473
#	78653
#	101017
#	119142
#	139281
#	157704
#	181502
#	199869
#	220215
#
# Disc length: 3200 seconds
#
# Revision: 1734142462
# Processed by: cddbd v1.5.2PL0 Copyright (c) Steve Scherf et al.
# Submitted via: EZCDAudioConverter 8.0.2.1
#
DISCID=a90c7e0c
DTITLE=Quỳnh Vi - Vùi Sâu Trái Tim Buồn
DYEAR=2009
DGENRE=World Pop
TTITLE0=Yêu không hối tiếc
TTITLE1=Xin thời gian ngừng trôi
TTITLE2=Vùi Sâu Trái Tim Buồn
TTITLE3=Tình chấp nhận
TTITLE4=Hương thơm kỳ diệu
TTITLE5=Men say tình ái
TTITLE6=Ngôi nhà hoa hồng
TTITLE7=Chỉ còn mình em
TTITLE8=Tình yêu muôn thuở
TTITLE9=Kỷ niệm chiều mưa
TTITLE10=Lời nào cho anh cho em
TTITLE11=Dù tình sương khói
EXTD=
EXTT0=
EXTT1=
EXTT2=
EXTT3=
EXTT4=
EXTT5=
EXTT6=
EXTT7=
EXTT8=
EXTT9=
EXTT10=
EXTT11=
PLAYORDER=
